<mxfile host="app.diagrams.net" modified="2021-03-26T10:24:17.681Z" agent="5.0 (Macintosh; Intel Mac OS X 10_15_5) AppleWebKit/605.1.15 (KHTML, like Gecko) Version/13.1.1 Safari/605.1.15" etag="vG_ht30AQr4ZCAh0GyKb" version="14.5.1" type="github">
  <diagram id="R2lEEEUBdFMjLlhIrx00" name="Page-1">
    <mxGraphModel dx="946" dy="662" grid="1" gridSize="10" guides="1" tooltips="1" connect="1" arrows="1" fold="1" page="1" pageScale="1" pageWidth="850" pageHeight="1100" math="0" shadow="0" extFonts="Permanent Marker^https://fonts.googleapis.com/css?family=Permanent+Marker">
      <root>
        <mxCell id="0" />
        <mxCell id="1" parent="0" />
        <mxCell id="pU21dftAFh7mlRXFfOvP-20" value="" style="rounded=0;whiteSpace=wrap;html=1;" parent="1" vertex="1">
          <mxGeometry x="10" y="360" width="310" height="300" as="geometry" />
        </mxCell>
        <mxCell id="pU21dftAFh7mlRXFfOvP-16" value="" style="rounded=0;whiteSpace=wrap;html=1;" parent="1" vertex="1">
          <mxGeometry x="10" y="10" width="310" height="300" as="geometry" />
        </mxCell>
        <mxCell id="pU21dftAFh7mlRXFfOvP-2" style="edgeStyle=orthogonalEdgeStyle;rounded=0;orthogonalLoop=1;jettySize=auto;html=1;exitX=0.5;exitY=1;exitDx=0;exitDy=0;" parent="1" edge="1">
          <mxGeometry relative="1" as="geometry">
            <mxPoint x="60" y="230" as="sourcePoint" />
            <mxPoint x="60" y="230" as="targetPoint" />
          </mxGeometry>
        </mxCell>
        <mxCell id="pU21dftAFh7mlRXFfOvP-7" style="edgeStyle=orthogonalEdgeStyle;rounded=0;orthogonalLoop=1;jettySize=auto;html=1;exitX=1;exitY=0.25;exitDx=0;exitDy=0;entryX=0;entryY=0.25;entryDx=0;entryDy=0;" parent="1" source="pU21dftAFh7mlRXFfOvP-4" target="pU21dftAFh7mlRXFfOvP-5" edge="1">
          <mxGeometry relative="1" as="geometry" />
        </mxCell>
        <mxCell id="pU21dftAFh7mlRXFfOvP-11" value="[1]" style="edgeLabel;html=1;align=center;verticalAlign=middle;resizable=0;points=[];" parent="pU21dftAFh7mlRXFfOvP-7" vertex="1" connectable="0">
          <mxGeometry x="-0.0789" relative="1" as="geometry">
            <mxPoint as="offset" />
          </mxGeometry>
        </mxCell>
        <mxCell id="pU21dftAFh7mlRXFfOvP-18" value="[2]" style="edgeStyle=orthogonalEdgeStyle;rounded=0;orthogonalLoop=1;jettySize=auto;html=1;exitX=0.5;exitY=1;exitDx=0;exitDy=0;entryX=0.5;entryY=0;entryDx=0;entryDy=0;" parent="1" source="pU21dftAFh7mlRXFfOvP-4" target="pU21dftAFh7mlRXFfOvP-14" edge="1">
          <mxGeometry relative="1" as="geometry" />
        </mxCell>
        <mxCell id="pU21dftAFh7mlRXFfOvP-54" style="edgeStyle=orthogonalEdgeStyle;rounded=0;orthogonalLoop=1;jettySize=auto;html=1;exitX=0.75;exitY=0;exitDx=0;exitDy=0;entryX=0;entryY=0.75;entryDx=0;entryDy=0;" parent="1" source="pU21dftAFh7mlRXFfOvP-4" target="pU21dftAFh7mlRXFfOvP-6" edge="1">
          <mxGeometry relative="1" as="geometry" />
        </mxCell>
        <mxCell id="pU21dftAFh7mlRXFfOvP-55" value="[7]" style="edgeLabel;html=1;align=center;verticalAlign=middle;resizable=0;points=[];" parent="pU21dftAFh7mlRXFfOvP-54" vertex="1" connectable="0">
          <mxGeometry x="0.2" relative="1" as="geometry">
            <mxPoint as="offset" />
          </mxGeometry>
        </mxCell>
        <mxCell id="pU21dftAFh7mlRXFfOvP-4" value="App" style="rounded=0;whiteSpace=wrap;html=1;" parent="1" vertex="1">
          <mxGeometry x="20" y="130" width="120" height="60" as="geometry" />
        </mxCell>
        <mxCell id="pU21dftAFh7mlRXFfOvP-8" value="[1]" style="edgeStyle=orthogonalEdgeStyle;rounded=0;orthogonalLoop=1;jettySize=auto;html=1;exitX=0;exitY=0;exitDx=0;exitDy=0;entryX=0;entryY=1;entryDx=0;entryDy=0;" parent="1" source="pU21dftAFh7mlRXFfOvP-5" target="pU21dftAFh7mlRXFfOvP-6" edge="1">
          <mxGeometry relative="1" as="geometry" />
        </mxCell>
        <mxCell id="pU21dftAFh7mlRXFfOvP-10" style="edgeStyle=orthogonalEdgeStyle;rounded=0;orthogonalLoop=1;jettySize=auto;html=1;exitX=0;exitY=0.75;exitDx=0;exitDy=0;entryX=1;entryY=0.75;entryDx=0;entryDy=0;" parent="1" source="pU21dftAFh7mlRXFfOvP-5" target="pU21dftAFh7mlRXFfOvP-4" edge="1">
          <mxGeometry relative="1" as="geometry" />
        </mxCell>
        <mxCell id="pU21dftAFh7mlRXFfOvP-13" value="[2]" style="edgeLabel;html=1;align=center;verticalAlign=middle;resizable=0;points=[];" parent="pU21dftAFh7mlRXFfOvP-10" vertex="1" connectable="0">
          <mxGeometry x="-0.059" relative="1" as="geometry">
            <mxPoint as="offset" />
          </mxGeometry>
        </mxCell>
        <mxCell id="pU21dftAFh7mlRXFfOvP-39" value="[6]" style="edgeStyle=orthogonalEdgeStyle;rounded=0;orthogonalLoop=1;jettySize=auto;html=1;exitX=0.5;exitY=0;exitDx=0;exitDy=0;entryX=0.5;entryY=1;entryDx=0;entryDy=0;" parent="1" source="pU21dftAFh7mlRXFfOvP-5" target="pU21dftAFh7mlRXFfOvP-6" edge="1">
          <mxGeometry relative="1" as="geometry" />
        </mxCell>
        <mxCell id="pU21dftAFh7mlRXFfOvP-42" style="edgeStyle=orthogonalEdgeStyle;rounded=0;orthogonalLoop=1;jettySize=auto;html=1;exitX=0.5;exitY=1;exitDx=0;exitDy=0;entryX=0.5;entryY=0;entryDx=0;entryDy=0;" parent="1" source="pU21dftAFh7mlRXFfOvP-5" target="pU21dftAFh7mlRXFfOvP-15" edge="1">
          <mxGeometry relative="1" as="geometry" />
        </mxCell>
        <mxCell id="pU21dftAFh7mlRXFfOvP-43" value="[6]" style="edgeLabel;html=1;align=center;verticalAlign=middle;resizable=0;points=[];" parent="pU21dftAFh7mlRXFfOvP-42" vertex="1" connectable="0">
          <mxGeometry x="-0.48" y="-1" relative="1" as="geometry">
            <mxPoint as="offset" />
          </mxGeometry>
        </mxCell>
        <mxCell id="pU21dftAFh7mlRXFfOvP-48" value="[7]" style="edgeStyle=orthogonalEdgeStyle;rounded=0;orthogonalLoop=1;jettySize=auto;html=1;exitX=0.75;exitY=1;exitDx=0;exitDy=0;entryX=0.75;entryY=0;entryDx=0;entryDy=0;" parent="1" source="pU21dftAFh7mlRXFfOvP-5" target="pU21dftAFh7mlRXFfOvP-15" edge="1">
          <mxGeometry relative="1" as="geometry" />
        </mxCell>
        <mxCell id="pU21dftAFh7mlRXFfOvP-66" style="edgeStyle=orthogonalEdgeStyle;rounded=0;orthogonalLoop=1;jettySize=auto;html=1;exitX=1;exitY=0.25;exitDx=0;exitDy=0;entryX=1;entryY=0.75;entryDx=0;entryDy=0;" parent="1" source="pU21dftAFh7mlRXFfOvP-5" target="pU21dftAFh7mlRXFfOvP-6" edge="1">
          <mxGeometry relative="1" as="geometry" />
        </mxCell>
        <mxCell id="pU21dftAFh7mlRXFfOvP-68" value="[8]" style="edgeLabel;html=1;align=center;verticalAlign=middle;resizable=0;points=[];" parent="pU21dftAFh7mlRXFfOvP-66" vertex="1" connectable="0">
          <mxGeometry x="-0.0917" relative="1" as="geometry">
            <mxPoint as="offset" />
          </mxGeometry>
        </mxCell>
        <mxCell id="pU21dftAFh7mlRXFfOvP-5" value="Adapter" style="rounded=0;whiteSpace=wrap;html=1;" parent="1" vertex="1">
          <mxGeometry x="190" y="130" width="120" height="60" as="geometry" />
        </mxCell>
        <mxCell id="pU21dftAFh7mlRXFfOvP-9" style="edgeStyle=orthogonalEdgeStyle;rounded=0;orthogonalLoop=1;jettySize=auto;html=1;entryX=0.25;entryY=0;entryDx=0;entryDy=0;exitX=0.25;exitY=1;exitDx=0;exitDy=0;" parent="1" source="pU21dftAFh7mlRXFfOvP-6" target="pU21dftAFh7mlRXFfOvP-5" edge="1">
          <mxGeometry relative="1" as="geometry" />
        </mxCell>
        <mxCell id="pU21dftAFh7mlRXFfOvP-12" value="[2]" style="edgeLabel;html=1;align=center;verticalAlign=middle;resizable=0;points=[];" parent="pU21dftAFh7mlRXFfOvP-9" vertex="1" connectable="0">
          <mxGeometry x="-0.0867" y="1" relative="1" as="geometry">
            <mxPoint as="offset" />
          </mxGeometry>
        </mxCell>
        <mxCell id="pU21dftAFh7mlRXFfOvP-41" value="[6]" style="edgeStyle=orthogonalEdgeStyle;rounded=0;orthogonalLoop=1;jettySize=auto;html=1;exitX=0.75;exitY=1;exitDx=0;exitDy=0;entryX=0.75;entryY=0;entryDx=0;entryDy=0;" parent="1" source="pU21dftAFh7mlRXFfOvP-6" target="pU21dftAFh7mlRXFfOvP-5" edge="1">
          <mxGeometry relative="1" as="geometry" />
        </mxCell>
        <mxCell id="pU21dftAFh7mlRXFfOvP-56" value="[7]" style="edgeStyle=orthogonalEdgeStyle;rounded=0;orthogonalLoop=1;jettySize=auto;html=1;exitX=1;exitY=1;exitDx=0;exitDy=0;entryX=1;entryY=0;entryDx=0;entryDy=0;" parent="1" source="pU21dftAFh7mlRXFfOvP-6" target="pU21dftAFh7mlRXFfOvP-5" edge="1">
          <mxGeometry relative="1" as="geometry" />
        </mxCell>
        <mxCell id="pU21dftAFh7mlRXFfOvP-69" style="edgeStyle=orthogonalEdgeStyle;rounded=0;orthogonalLoop=1;jettySize=auto;html=1;exitX=0;exitY=0.5;exitDx=0;exitDy=0;entryX=0.5;entryY=0;entryDx=0;entryDy=0;" parent="1" source="pU21dftAFh7mlRXFfOvP-6" target="pU21dftAFh7mlRXFfOvP-4" edge="1">
          <mxGeometry relative="1" as="geometry" />
        </mxCell>
        <mxCell id="pU21dftAFh7mlRXFfOvP-71" value="[8]" style="edgeLabel;html=1;align=center;verticalAlign=middle;resizable=0;points=[];" parent="pU21dftAFh7mlRXFfOvP-69" vertex="1" connectable="0">
          <mxGeometry x="-0.2579" y="-2" relative="1" as="geometry">
            <mxPoint as="offset" />
          </mxGeometry>
        </mxCell>
        <mxCell id="pU21dftAFh7mlRXFfOvP-6" value="Output Layer" style="rounded=0;whiteSpace=wrap;html=1;" parent="1" vertex="1">
          <mxGeometry x="190" y="20" width="120" height="60" as="geometry" />
        </mxCell>
        <mxCell id="pU21dftAFh7mlRXFfOvP-24" value="[2]" style="edgeStyle=orthogonalEdgeStyle;rounded=0;orthogonalLoop=1;jettySize=auto;html=1;exitX=0.5;exitY=1;exitDx=0;exitDy=0;entryX=0.5;entryY=0;entryDx=0;entryDy=0;" parent="1" source="pU21dftAFh7mlRXFfOvP-14" target="pU21dftAFh7mlRXFfOvP-23" edge="1">
          <mxGeometry relative="1" as="geometry" />
        </mxCell>
        <mxCell id="pU21dftAFh7mlRXFfOvP-14" value="Network Alt." style="rounded=0;whiteSpace=wrap;html=1;" parent="1" vertex="1">
          <mxGeometry x="20" y="240" width="120" height="60" as="geometry" />
        </mxCell>
        <mxCell id="pU21dftAFh7mlRXFfOvP-38" value="[5]" style="edgeStyle=orthogonalEdgeStyle;rounded=0;orthogonalLoop=1;jettySize=auto;html=1;exitX=0.25;exitY=0;exitDx=0;exitDy=0;entryX=0.25;entryY=1;entryDx=0;entryDy=0;" parent="1" source="pU21dftAFh7mlRXFfOvP-15" target="pU21dftAFh7mlRXFfOvP-5" edge="1">
          <mxGeometry relative="1" as="geometry" />
        </mxCell>
        <mxCell id="pU21dftAFh7mlRXFfOvP-44" style="edgeStyle=orthogonalEdgeStyle;rounded=0;orthogonalLoop=1;jettySize=auto;html=1;exitX=0.5;exitY=1;exitDx=0;exitDy=0;entryX=0.5;entryY=0;entryDx=0;entryDy=0;" parent="1" source="pU21dftAFh7mlRXFfOvP-15" target="pU21dftAFh7mlRXFfOvP-27" edge="1">
          <mxGeometry relative="1" as="geometry" />
        </mxCell>
        <mxCell id="pU21dftAFh7mlRXFfOvP-45" value="[6]" style="edgeLabel;html=1;align=center;verticalAlign=middle;resizable=0;points=[];" parent="pU21dftAFh7mlRXFfOvP-44" vertex="1" connectable="0">
          <mxGeometry x="0.2524" relative="1" as="geometry">
            <mxPoint as="offset" />
          </mxGeometry>
        </mxCell>
        <mxCell id="pU21dftAFh7mlRXFfOvP-49" value="[7]" style="edgeStyle=orthogonalEdgeStyle;rounded=0;orthogonalLoop=1;jettySize=auto;html=1;exitX=0.75;exitY=1;exitDx=0;exitDy=0;entryX=0.75;entryY=0;entryDx=0;entryDy=0;" parent="1" source="pU21dftAFh7mlRXFfOvP-15" target="pU21dftAFh7mlRXFfOvP-27" edge="1">
          <mxGeometry relative="1" as="geometry" />
        </mxCell>
        <mxCell id="pU21dftAFh7mlRXFfOvP-65" value="[8]" style="edgeStyle=orthogonalEdgeStyle;rounded=0;orthogonalLoop=1;jettySize=auto;html=1;exitX=1;exitY=0.25;exitDx=0;exitDy=0;entryX=1;entryY=0.75;entryDx=0;entryDy=0;" parent="1" source="pU21dftAFh7mlRXFfOvP-15" target="pU21dftAFh7mlRXFfOvP-5" edge="1">
          <mxGeometry relative="1" as="geometry" />
        </mxCell>
        <mxCell id="pU21dftAFh7mlRXFfOvP-15" value="Network" style="rounded=0;whiteSpace=wrap;html=1;" parent="1" vertex="1">
          <mxGeometry x="190" y="240" width="120" height="60" as="geometry" />
        </mxCell>
        <mxCell id="pU21dftAFh7mlRXFfOvP-17" value="Host" style="text;html=1;align=center;verticalAlign=middle;resizable=0;points=[];autosize=1;" parent="1" vertex="1">
          <mxGeometry x="20" y="40" width="40" height="20" as="geometry" />
        </mxCell>
        <mxCell id="pU21dftAFh7mlRXFfOvP-21" value="Remote" style="text;html=1;strokeColor=none;fillColor=none;align=center;verticalAlign=middle;whiteSpace=wrap;rounded=0;" parent="1" vertex="1">
          <mxGeometry x="20" y="610" width="40" height="20" as="geometry" />
        </mxCell>
        <mxCell id="pU21dftAFh7mlRXFfOvP-26" value="[2]" style="edgeStyle=orthogonalEdgeStyle;rounded=0;orthogonalLoop=1;jettySize=auto;html=1;exitX=0.5;exitY=1;exitDx=0;exitDy=0;entryX=0.5;entryY=0;entryDx=0;entryDy=0;" parent="1" source="pU21dftAFh7mlRXFfOvP-23" target="pU21dftAFh7mlRXFfOvP-25" edge="1">
          <mxGeometry relative="1" as="geometry" />
        </mxCell>
        <mxCell id="pU21dftAFh7mlRXFfOvP-23" value="Network Alt." style="rounded=0;whiteSpace=wrap;html=1;" parent="1" vertex="1">
          <mxGeometry x="20" y="370" width="120" height="60" as="geometry" />
        </mxCell>
        <mxCell id="pU21dftAFh7mlRXFfOvP-30" value="[3]" style="edgeStyle=orthogonalEdgeStyle;rounded=0;orthogonalLoop=1;jettySize=auto;html=1;exitX=1;exitY=0.5;exitDx=0;exitDy=0;entryX=0;entryY=0.5;entryDx=0;entryDy=0;" parent="1" source="pU21dftAFh7mlRXFfOvP-25" target="pU21dftAFh7mlRXFfOvP-28" edge="1">
          <mxGeometry relative="1" as="geometry" />
        </mxCell>
        <mxCell id="pU21dftAFh7mlRXFfOvP-35" value="[5]" style="edgeStyle=orthogonalEdgeStyle;rounded=0;orthogonalLoop=1;jettySize=auto;html=1;exitX=1;exitY=0.25;exitDx=0;exitDy=0;entryX=0;entryY=0.25;entryDx=0;entryDy=0;" parent="1" source="pU21dftAFh7mlRXFfOvP-25" target="pU21dftAFh7mlRXFfOvP-28" edge="1">
          <mxGeometry relative="1" as="geometry" />
        </mxCell>
        <mxCell id="pU21dftAFh7mlRXFfOvP-58" style="edgeStyle=orthogonalEdgeStyle;rounded=0;orthogonalLoop=1;jettySize=auto;html=1;exitX=1;exitY=1;exitDx=0;exitDy=0;entryX=0;entryY=1;entryDx=0;entryDy=0;" parent="1" source="pU21dftAFh7mlRXFfOvP-25" target="pU21dftAFh7mlRXFfOvP-28" edge="1">
          <mxGeometry relative="1" as="geometry" />
        </mxCell>
        <mxCell id="pU21dftAFh7mlRXFfOvP-62" value="[8]" style="edgeLabel;html=1;align=center;verticalAlign=middle;resizable=0;points=[];" parent="pU21dftAFh7mlRXFfOvP-58" vertex="1" connectable="0">
          <mxGeometry x="0.0074" y="1" relative="1" as="geometry">
            <mxPoint as="offset" />
          </mxGeometry>
        </mxCell>
        <mxCell id="pU21dftAFh7mlRXFfOvP-25" value="App" style="rounded=0;whiteSpace=wrap;html=1;" parent="1" vertex="1">
          <mxGeometry x="20" y="480" width="120" height="60" as="geometry" />
        </mxCell>
        <mxCell id="pU21dftAFh7mlRXFfOvP-37" value="[5]" style="edgeStyle=orthogonalEdgeStyle;rounded=0;orthogonalLoop=1;jettySize=auto;html=1;exitX=0.25;exitY=0;exitDx=0;exitDy=0;entryX=0.25;entryY=1;entryDx=0;entryDy=0;" parent="1" source="pU21dftAFh7mlRXFfOvP-27" target="pU21dftAFh7mlRXFfOvP-15" edge="1">
          <mxGeometry relative="1" as="geometry" />
        </mxCell>
        <mxCell id="pU21dftAFh7mlRXFfOvP-46" value="[6]" style="edgeStyle=orthogonalEdgeStyle;rounded=0;orthogonalLoop=1;jettySize=auto;html=1;exitX=0.5;exitY=1;exitDx=0;exitDy=0;" parent="1" source="pU21dftAFh7mlRXFfOvP-27" target="pU21dftAFh7mlRXFfOvP-28" edge="1">
          <mxGeometry relative="1" as="geometry" />
        </mxCell>
        <mxCell id="pU21dftAFh7mlRXFfOvP-53" value="[7]" style="edgeStyle=orthogonalEdgeStyle;rounded=0;orthogonalLoop=1;jettySize=auto;html=1;exitX=0.75;exitY=1;exitDx=0;exitDy=0;entryX=0.75;entryY=0;entryDx=0;entryDy=0;" parent="1" source="pU21dftAFh7mlRXFfOvP-27" target="pU21dftAFh7mlRXFfOvP-28" edge="1">
          <mxGeometry relative="1" as="geometry" />
        </mxCell>
        <mxCell id="pU21dftAFh7mlRXFfOvP-64" value="[8]" style="edgeStyle=orthogonalEdgeStyle;rounded=0;orthogonalLoop=1;jettySize=auto;html=1;exitX=1;exitY=0.25;exitDx=0;exitDy=0;entryX=1;entryY=0.75;entryDx=0;entryDy=0;" parent="1" source="pU21dftAFh7mlRXFfOvP-27" target="pU21dftAFh7mlRXFfOvP-15" edge="1">
          <mxGeometry relative="1" as="geometry" />
        </mxCell>
        <mxCell id="pU21dftAFh7mlRXFfOvP-27" value="Network" style="rounded=0;whiteSpace=wrap;html=1;" parent="1" vertex="1">
          <mxGeometry x="190" y="370" width="120" height="60" as="geometry" />
        </mxCell>
        <mxCell id="pU21dftAFh7mlRXFfOvP-31" value="[3]" style="edgeStyle=orthogonalEdgeStyle;rounded=0;orthogonalLoop=1;jettySize=auto;html=1;exitX=0.75;exitY=1;exitDx=0;exitDy=0;entryX=0.75;entryY=0;entryDx=0;entryDy=0;" parent="1" source="pU21dftAFh7mlRXFfOvP-28" target="pU21dftAFh7mlRXFfOvP-29" edge="1">
          <mxGeometry relative="1" as="geometry" />
        </mxCell>
        <mxCell id="pU21dftAFh7mlRXFfOvP-34" value="[4]" style="edgeStyle=orthogonalEdgeStyle;rounded=0;orthogonalLoop=1;jettySize=auto;html=1;exitX=0;exitY=0.75;exitDx=0;exitDy=0;entryX=1;entryY=0.75;entryDx=0;entryDy=0;" parent="1" source="pU21dftAFh7mlRXFfOvP-28" target="pU21dftAFh7mlRXFfOvP-25" edge="1">
          <mxGeometry relative="1" as="geometry" />
        </mxCell>
        <mxCell id="pU21dftAFh7mlRXFfOvP-36" value="[5]" style="edgeStyle=orthogonalEdgeStyle;rounded=0;orthogonalLoop=1;jettySize=auto;html=1;exitX=0.25;exitY=0;exitDx=0;exitDy=0;entryX=0.25;entryY=1;entryDx=0;entryDy=0;" parent="1" source="pU21dftAFh7mlRXFfOvP-28" target="pU21dftAFh7mlRXFfOvP-27" edge="1">
          <mxGeometry relative="1" as="geometry" />
        </mxCell>
        <mxCell id="pU21dftAFh7mlRXFfOvP-50" style="edgeStyle=orthogonalEdgeStyle;rounded=0;orthogonalLoop=1;jettySize=auto;html=1;exitX=0;exitY=0;exitDx=0;exitDy=0;entryX=1;entryY=0;entryDx=0;entryDy=0;" parent="1" source="pU21dftAFh7mlRXFfOvP-28" target="pU21dftAFh7mlRXFfOvP-25" edge="1">
          <mxGeometry relative="1" as="geometry" />
        </mxCell>
        <mxCell id="pU21dftAFh7mlRXFfOvP-52" value="[7]" style="edgeLabel;html=1;align=center;verticalAlign=middle;resizable=0;points=[];" parent="pU21dftAFh7mlRXFfOvP-50" vertex="1" connectable="0">
          <mxGeometry x="0.0852" y="1" relative="1" as="geometry">
            <mxPoint as="offset" />
          </mxGeometry>
        </mxCell>
        <mxCell id="pU21dftAFh7mlRXFfOvP-63" value="[8]" style="edgeStyle=orthogonalEdgeStyle;rounded=0;orthogonalLoop=1;jettySize=auto;html=1;exitX=1;exitY=0.25;exitDx=0;exitDy=0;entryX=1;entryY=0.75;entryDx=0;entryDy=0;" parent="1" source="pU21dftAFh7mlRXFfOvP-28" target="pU21dftAFh7mlRXFfOvP-27" edge="1">
          <mxGeometry relative="1" as="geometry" />
        </mxCell>
        <mxCell id="pU21dftAFh7mlRXFfOvP-28" value="Adapter" style="rounded=0;whiteSpace=wrap;html=1;" parent="1" vertex="1">
          <mxGeometry x="190" y="480" width="120" height="60" as="geometry" />
        </mxCell>
        <mxCell id="pU21dftAFh7mlRXFfOvP-32" style="edgeStyle=orthogonalEdgeStyle;rounded=0;orthogonalLoop=1;jettySize=auto;html=1;exitX=0.25;exitY=0;exitDx=0;exitDy=0;entryX=0.25;entryY=1;entryDx=0;entryDy=0;" parent="1" source="pU21dftAFh7mlRXFfOvP-29" target="pU21dftAFh7mlRXFfOvP-28" edge="1">
          <mxGeometry relative="1" as="geometry" />
        </mxCell>
        <mxCell id="pU21dftAFh7mlRXFfOvP-33" value="[4]" style="edgeLabel;html=1;align=center;verticalAlign=middle;resizable=0;points=[];" parent="pU21dftAFh7mlRXFfOvP-32" vertex="1" connectable="0">
          <mxGeometry x="-0.1533" y="-2" relative="1" as="geometry">
            <mxPoint as="offset" />
          </mxGeometry>
        </mxCell>
        <mxCell id="pU21dftAFh7mlRXFfOvP-29" value="Input Layer" style="rounded=0;whiteSpace=wrap;html=1;" parent="1" vertex="1">
          <mxGeometry x="190" y="590" width="120" height="60" as="geometry" />
        </mxCell>
      </root>
    </mxGraphModel>
  </diagram>
</mxfile>
